<svg xmlns="http://www.w3.org/2000/svg" xmlns:xlink="http://www.w3.org/1999/xlink" width="390" height="283" viewBox="0 0 390 283">
  <defs>
    <clipPath id="clip-path">
      <rect id="Rectángulo_8862" data-name="Rectángulo 8862" width="300.588" height="272.514" fill="none"/>
    </clipPath>
    <clipPath id="clip-path-3">
      <rect id="Rectángulo_8859" data-name="Rectángulo 8859" width="24.123" height="24.116" fill="none"/>
    </clipPath>
    <clipPath id="clip-path-4">
      <rect id="Rectángulo_8860" data-name="Rectángulo 8860" width="2.694" height="2.697" fill="none"/>
    </clipPath>
  </defs>
  <g id="Grupo_63547" data-name="Grupo 63547" transform="translate(-180 -948)">
    <g id="Grupo_63546" data-name="Grupo 63546" transform="translate(-9 1461.925)">
      <g id="Grupo_63545" data-name="Grupo 63545" transform="translate(234 -508.925)" clip-path="url(#clip-path)">
        <g id="Grupo_30426" data-name="Grupo 30426">
          <g id="Grupo_30425" data-name="Grupo 30425">
            <g id="Grupo_63544" data-name="Grupo 63544">
              <g id="Grupo_63543" data-name="Grupo 63543" clip-path="url(#clip-path)">
                <g id="Grupo_30424" data-name="Grupo 30424" transform="translate(0 0.001)">
                  <path id="Trazado_25878" data-name="Trazado 25878" d="M489.953-430.25c-.947-3.24-6.145-7.742-6.145-7.742a18.175,18.175,0,0,1-2.647-25.567,18.174,18.174,0,0,1,14.154-6.715h-.025a18.175,18.175,0,0,1,18.23,18.121,18.175,18.175,0,0,1-6.715,14.162s-5.2,4.5-6.145,7.742Z" transform="translate(-356.625 489.428)" fill="#f1c555"/>
                  <path id="Trazado_25879" data-name="Trazado 25879" d="M501.323-414.529a.488.488,0,0,1-.49-.487v-.008c0-6.415-.093-15.232-.3-21.618-4.047-.5-5.879-1.93-6.711-3.138a4.4,4.4,0,0,1-.451-4.07,3.6,3.6,0,0,1,2.541-2.323,6.153,6.153,0,0,1,4.708.679c.253.2.6.488.866,7.965.465.04.945.064,1.444.075.826.026,1.613.023,2.353-.011.122-4.06.347-7.26.743-8.028a1.915,1.915,0,0,1,1.787-1.1c1.985,0,4.618,2.428,5.74,4.6a2.664,2.664,0,0,1-.022,2.753c-.942,1.5-3.531,2.441-7.293,2.71-.153,6.323-.11,14.9,0,21.426a.491.491,0,0,1-.484.5.491.491,0,0,1-.5-.483c-.031-1.854-.208-13.075,0-21.388-.743.026-1.53.029-2.352.006-.486-.006-.948-.032-1.388-.07.06,1.839.115,4.073.161,6.768.125,7.349.131,14.685.131,14.753a.489.489,0,0,1-.482.5h-.006m6.492-31.085a.948.948,0,0,0-.914.568c-.321.622-.521,3.541-.635,7.524,3.354-.241,5.675-1.03,6.434-2.238a1.686,1.686,0,0,0-.019-1.784c-1.078-2.092-3.441-4.072-4.866-4.072m-10.419.227a4.539,4.539,0,0,0-1.217.154,2.636,2.636,0,0,0-1.883,1.708,3.4,3.4,0,0,0,.34,3.185c.951,1.388,2.995,2.324,5.864,2.7a44.567,44.567,0,0,0-.545-7.132,5.1,5.1,0,0,0-2.557-.617" transform="translate(-364.685 477.484)" fill="#fff"/>
                  <path id="Trazado_25880" data-name="Trazado 25880" d="M513.79-379.716a2.577,2.577,0,0,1-2.577,2.573H510.15a2.574,2.574,0,0,1-2.574-2.574,2.574,2.574,0,0,1,2.574-2.574h1.063a2.577,2.577,0,0,1,2.577,2.574" transform="translate(-372.003 445.045)" fill="#2b3d8f"/>
                  <path id="Trazado_25881" data-name="Trazado 25881" d="M502.879-389.8v4.136A2.43,2.43,0,0,0,505-383.016h6.641a2.431,2.431,0,0,0,2.113-2.651V-389.8Z" transform="translate(-369.633 448.835)" fill="#b0d4e5"/>
                  <path id="Trazado_25882" data-name="Trazado 25882" d="M513.5-494.583a.488.488,0,0,1-.487-.49v-13.362a.489.489,0,0,1,.489-.49.489.489,0,0,1,.49.489h0v13.359a.49.49,0,0,1-.488.492h0" transform="translate(-374.748 508.924)" fill="#f5a237"/>
                  <path id="Trazado_25883" data-name="Trazado 25883" d="M543.712-482.232a.477.477,0,0,1-.265-.075.486.486,0,0,1-.15-.671l0,0,7.268-11.215a.491.491,0,0,1,.679-.145.491.491,0,0,1,.145.679h0l-7.266,11.208a.482.482,0,0,1-.412.222" transform="translate(-389.983 501.608)" fill="#f5a237"/>
                  <path id="Trazado_25884" data-name="Trazado 25884" d="M562.229-446.46a.49.49,0,0,1-.492-.488.49.49,0,0,1,.317-.46l12.471-4.792a.488.488,0,0,1,.634.273.489.489,0,0,1-.273.634l-.011,0-12.467,4.8a.523.523,0,0,1-.178.032" transform="translate(-399.323 480.327)" fill="#f5a237"/>
                  <path id="Trazado_25885" data-name="Trazado 25885" d="M475.59-482.224a.48.48,0,0,1-.41-.222l-7.268-11.209a.49.49,0,0,1,.158-.675.491.491,0,0,1,.665.142L476-482.973a.485.485,0,0,1-.143.671.483.483,0,0,1-.271.078" transform="translate(-351.957 501.599)" fill="#f5a237"/>
                  <path id="Trazado_25886" data-name="Trazado 25886" d="M451.776-446.458a.475.475,0,0,1-.174-.032l-12.472-4.8a.489.489,0,0,1-.281-.631.489.489,0,0,1,.631-.28l12.473,4.792a.491.491,0,0,1,.278.636.491.491,0,0,1-.455.312" transform="translate(-337.317 480.325)" fill="#f5a237"/>
                  <path id="Trazado_25887" data-name="Trazado 25887" d="M517.061-172.2l-.317-4.082-17.6-3.983-2.825,1.614-7.673-2.387c-6.624-2.06-18.314-1.806-26.116.563l-46.293,14.067,22.317,6.938c-5.416,1.647-6.08,4.139-1.479,5.57s12.715,1.256,18.133-.39l22.1,6.871,18.46-5.608c-.116-.035-.242-.063-.355-.1-4.6-1.431-3.936-3.924,1.483-5.57s13.534-1.821,18.134-.391c.112.035.207.073.316.11l22.38-6.8Z" transform="translate(-325.928 344.227)" fill="#2b388f"/>
                  <path id="Trazado_25888" data-name="Trazado 25888" d="M416.232-181.78v15.7l18.2,5.71,4.307-14.45Z" transform="translate(-325.925 343.9)" fill="#3869ac"/>
                  <path id="Trazado_25889" data-name="Trazado 25889" d="M463.945-157.808h0c-.248-.522-.414-.836-.414-.836L452.113-161v.206c-.017-.042-.025-.065-.025-.065l.025,15.631c.4,2.014,5.649,2.744,5.649,2.744a35.153,35.153,0,0,0,15.528-.991v-15.7c-3.254,1.166-9.344,1.374-9.344,1.374" transform="translate(-344.012 333.42)" fill="#3869ac"/>
                  <path id="Trazado_25890" data-name="Trazado 25890" d="M495.4-184.806c-4.6-1.432-3.936-3.925,1.483-5.571s13.534-1.821,18.134-.391c.112.035.207.073.316.109l22.379-6.8-49.075-15.26c-6.624-2.061-18.314-1.81-26.116.562l-46.293,14.066,22.317,6.938c-5.416,1.647-6.079,4.138-1.479,5.569s12.714,1.257,18.133-.391l22.1,6.871,18.46-5.609c-.117-.033-.242-.063-.355-.1" transform="translate(-325.924 360.21)" fill="#6c9fd1"/>
                  <path id="Trazado_25891" data-name="Trazado 25891" d="M494.871-157.325v15.7l22.1,6.871v-15.7Z" transform="translate(-365.594 331.564)" fill="#3869ac"/>
                  <path id="Trazado_25892" data-name="Trazado 25892" d="M557.919-154.779v15.7l-18.46,5.607v-15.7Z" transform="translate(-388.086 330.279)" fill="#3869ac"/>
                  <path id="Trazado_25893" data-name="Trazado 25893" d="M616.217-173.705V-158l22.379-6.8v-15.7Z" transform="translate(-426.805 343.257)" fill="#3869ac"/>
                  <path id="Trazado_25894" data-name="Trazado 25894" d="M584.951-272.32a14.168,14.168,0,0,1,2.012-.342,3.364,3.364,0,0,1,1.837.489c.174.191-.093.809-.673,1.077a2.4,2.4,0,0,1-1.545.19,8.088,8.088,0,0,0-.963-.33,4.983,4.983,0,0,1-.806-.129Z" transform="translate(-410.964 389.745)" fill="#facbc4"/>
                  <path id="Trazado_25895" data-name="Trazado 25895" d="M587.743-296.228a8.272,8.272,0,0,0-2.607-2.338,10.2,10.2,0,0,0-.92-.511l7.079-31.2a10.44,10.44,0,0,0,2.58-.185l.033-.007c.238-.05.47-.105.684-.168.093-.025.178-.056.267-.084.121-.041.248-.079.365-.125a8.3,8.3,0,0,0,3.851-2.863,4.434,4.434,0,0,0,.4-.595c1.607-2.966,2.173-8.683-1.215-12.355l-2.737,7.577s-.638.921-2.5.66-5.55-.725-6.31-2.555c-.532-1.275.718-6.623,1.525-9.734a9.987,9.987,0,0,0-9.08,7.165,9.576,9.576,0,0,0,1.827,8.361,9.194,9.194,0,0,0,2.905,2.607c.122.076.245.144.369.215l-7.208,31.774c-.307.032-.595.075-.87.131a.148.148,0,0,0-.03.007c-.214.044-.417.092-.615.149-.081.02-.155.05-.233.077-.111.034-.225.068-.331.109a7.489,7.489,0,0,0-3.453,2.567,3.643,3.643,0,0,0-.355.532c-1.437,2.665-1.948,7.792,1.09,11.084l2.456-6.794s.57-.829,2.24-.592,4.978.647,5.661,2.288c.475,1.146-.648,5.939-1.367,8.733a8.953,8.953,0,0,0,8.142-6.426,8.6,8.6,0,0,0-1.64-7.5" transform="translate(-403.501 429.118)" fill="#6c9fd1"/>
                  <path id="Trazado_25896" data-name="Trazado 25896" d="M548.181-302.848a3.585,3.585,0,0,1,1.952,2.494c.584,2.016,2.283,8.849,3.534,9.895S565.557-288,565.557-288l-.058,1.883s-12.576,1.755-15.22-.816-5.913-11.289-4.837-13.362,2.32-2.62,2.74-2.557" transform="translate(-390.997 404.974)" fill="#b0d4e5"/>
                  <path id="Trazado_25897" data-name="Trazado 25897" d="M532.153-261.2c-.066.466-.116.867-.149,1.189-.273,2.531-1.178,4.3-5.7,4.613s-8.416-.224-9-2.353a26.85,26.85,0,0,1-.34-3.962,57.787,57.787,0,0,0,15.2.516" transform="translate(-376.736 384.222)" fill="#171614"/>
                  <path id="Trazado_25898" data-name="Trazado 25898" d="M516.838-283.808c-.294-6.975-.135-20.4,1.667-21.058,2.322-.845,5.325-.644,8.839-.552,0,0,6.983.189,7.661,2.363s.046,5.745-.724,8.008a102.674,102.674,0,0,0-2.247,11.755,57.787,57.787,0,0,1-15.2-.516" transform="translate(-376.615 406.313)" fill="#b0d4e5"/>
                  <path id="Trazado_25899" data-name="Trazado 25899" d="M538.427-188.133c0-.045,1.635.123,1.635.123s.149,1.054.435,1.065a4.437,4.437,0,0,1,1.6.359,1.263,1.263,0,0,1,.223.669,15.923,15.923,0,0,1-1.933.037,5.153,5.153,0,0,1-.483-.209l.038.347L538.4-185.8a9.514,9.514,0,0,1,.025-2.329" transform="translate(-387.523 347.108)" fill="#171614"/>
                  <path id="Trazado_25900" data-name="Trazado 25900" d="M533.335-252.9s.728,11.552.874,14.8,1.475,17,1.475,17l2.226-.221s1.346-15.03,1.346-18.088.77-16.49.77-16.49Z" transform="translate(-384.996 381.287)" fill="#171614"/>
                  <path id="Trazado_25901" data-name="Trazado 25901" d="M523.914-188.224c0-.045,1.635.124,1.635.124s.149,1.053.435,1.064a4.446,4.446,0,0,1,1.6.359,1.252,1.252,0,0,1,.222.669,16.225,16.225,0,0,1-1.933.038c-.211-.075-.483-.211-.483-.211l.038.347-1.536-.063a9.46,9.46,0,0,1,.025-2.329" transform="translate(-380.201 347.154)" fill="#171614"/>
                  <path id="Trazado_25902" data-name="Trazado 25902" d="M518.977-253.826s.95,13.356,1.1,16.607,1.216,16.917,1.216,16.917l2.321-.1s1.511-15.068,1.511-18.126.728-15.63.728-15.63Z" transform="translate(-377.754 380.41)" fill="#171614"/>
                  <path id="Trazado_25903" data-name="Trazado 25903" d="M534.289-316.594a19.607,19.607,0,0,1,.263-3.5c.274-1.018.352-1.631,1.232-2.045a8.991,8.991,0,0,1,4.257-.233c.821.275.656.748.174,1.071a3.415,3.415,0,0,1-1.169.347,22.6,22.6,0,0,1-1.859,3.257c-.822,1.051-2.9,1.1-2.9,1.1" transform="translate(-385.477 414.896)" fill="#171614"/>
                  <path id="Trazado_25904" data-name="Trazado 25904" d="M539.74-316.575a9.107,9.107,0,0,0-.842-1.887,3.937,3.937,0,0,1-.172-.976l-2.336.046.225,1.742-.716.358a1.249,1.249,0,0,0-.451-.838.377.377,0,0,0-.509.027h0s-.5.4-.254.865a1.8,1.8,0,0,0,.761.661v.007c-.171.549-1.734,1.405-1.734,1.405l-.576,2.589a30.49,30.49,0,0,1,3.21.708s.434-2,.5-2.187,1.239.1,1.606-.22.393-1.847.416-2.032.782-.131.874-.268" transform="translate(-384.895 413.34)" fill="#f8c4b4"/>
                  <path id="Trazado_25905" data-name="Trazado 25905" d="M537.336-305.232l-.3.143-.3-.093-.363,1.441.586.6.579-.084.368-.608Z" transform="translate(-386.529 406.174)" fill="#171614"/>
                  <path id="Trazado_25906" data-name="Trazado 25906" d="M536.4-301.179s.442,5.971-.293,9.3l-1.129.878-.885-1.256a55.958,55.958,0,0,0,1.66-8.92Z" transform="translate(-385.379 404.129)" fill="#171614"/>
                  <path id="Trazado_25907" data-name="Trazado 25907" d="M533.26-308.212a5.952,5.952,0,0,0,2.087,1.516l-.7,2.081s-1.507-1.742-1.821-2.247Z" transform="translate(-384.741 407.677)" fill="#b0d4e5"/>
                  <path id="Trazado_25908" data-name="Trazado 25908" d="M539.02-307.057s-.857.9-1.189.952l1.026,1.87s.328-1.6.318-1.9Z" transform="translate(-387.264 407.094)" fill="#b0d4e5"/>
                  <path id="Trazado_25909" data-name="Trazado 25909" d="M586.773-273.051a4.5,4.5,0,0,1,.856-.65,4.393,4.393,0,0,1,1.167-.342c.031.04.176.191-.322.464a3.759,3.759,0,0,0-.879.686Z" transform="translate(-411.953 390.441)" fill="#facbc4"/>
                  <path id="Trazado_25910" data-name="Trazado 25910" d="M508.927-355.3a17.362,17.362,0,0,0,.982-4.725c-.073-1.711-.493-2.411-.627-2.294s.094,2.535-.178,2.726-1.372.654-1.56,1.011.107,1.281.149,1.938a5.137,5.137,0,0,1-.37,1.713Z" transform="translate(-371.875 434.978)" fill="#f8c4b4"/>
                  <path id="Trazado_25911" data-name="Trazado 25911" d="M511.7-323.734s-5.809-7.186-6.075-15.393a58.6,58.6,0,0,1,.836-11.2l2.271.223s.244,8.594.922,11.933c.6,2.967,6.561,9.588,6.608,12.16s-4.078,2.456-4.563,2.28" transform="translate(-371.013 428.923)" fill="#b0d4e5"/>
                  <path id="Trazado_25912" data-name="Trazado 25912" d="M622.492-47.94V-42.9l-6.011-2.118" transform="translate(-426.938 276.385)" fill="#589eab"/>
                  <path id="Trazado_25913" data-name="Trazado 25913" d="M497.766-53.542l-.115,7.412s8.105-4.555,8.105-4.694-7.99-2.717-7.99-2.717" transform="translate(-366.996 279.211)" fill="#589eab"/>
                  <path id="Trazado_25914" data-name="Trazado 25914" d="M540-27.978l-.17,17.106-123.279-.556L416.4-28.785Z" transform="translate(-326.01 266.723)" fill="#3869ac"/>
                  <path id="Trazado_25915" data-name="Trazado 25915" d="M514.679-18.727h0c5.417-1.647,6.081-4.139,1.482-5.57s-12.719-1.255-18.138.391L475.26-30.983l-20.824,6.327c4,1.452,3.192,3.809-2,5.386s-12.869,1.8-17.546.554l-18.173,6.181L464.467,3.289c6.621,2.058,18.315,1.808,26.116-.563l49.41-14.705Z" transform="translate(-326.168 267.832)" fill="#3869ac"/>
                  <path id="Trazado_25916" data-name="Trazado 25916" d="M517.024-54.054h0c5.416-1.646,6.08-4.139,1.481-5.569s-12.719-1.256-18.137.39l-22.762-7.079-20.826,6.328c4,1.453,3.191,3.809-2,5.388s-12.869,1.8-17.547.553L416.4-47.715,466.808-32.04c6.623,2.06,18.315,1.808,26.116-.562L540-46.907Z" transform="translate(-326.01 285.653)" fill="#6c9fd1"/>
                  <path id="Trazado_25917" data-name="Trazado 25917" d="M600.769-44.5l-3.547-23.94.545-.018,3.551,23.96Z" transform="translate(-417.223 286.738)" fill="#263564"/>
                  <path id="Trazado_25918" data-name="Trazado 25918" d="M552.314-44.5l-3.547-23.94.545-.018,3.55,23.96Z" transform="translate(-392.781 286.738)" fill="#263564"/>
                  <path id="Trazado_25919" data-name="Trazado 25919" d="M563.946-131.788l5.512,37.2H544.889l-5.513-37.2Z" transform="translate(-388.044 318.682)" fill="#263564"/>
                  <path id="Trazado_25920" data-name="Trazado 25920" d="M522.79-44.505l3.548-23.942-.545-.018-3.55,23.96Z" transform="translate(-379.401 286.739)" fill="#3869ac"/>
                  <path id="Trazado_25921" data-name="Trazado 25921" d="M571.245-44.505l3.547-23.942-.545-.018L570.7-44.505Z" transform="translate(-403.845 286.739)" fill="#3869ac"/>
                  <path id="Trazado_25922" data-name="Trazado 25922" d="M527.648-58.268h24.571l.225-1.515H527.872Z" transform="translate(-382.128 282.36)" fill="#2b388f"/>
                  <path id="Trazado_25923" data-name="Trazado 25923" d="M563.132-131.788H538.561l-.207,1.4h24.57Z" transform="translate(-387.528 318.682)" fill="#2b388f"/>
                  <path id="Trazado_25924" data-name="Trazado 25924" d="M533.181-128.962,528.1-94.681h24.57l5.079-34.281Z" transform="translate(-382.356 317.256)" fill="#63c0c2"/>
                  <path id="Trazado_25925" data-name="Trazado 25925" d="M559.413-112l-14-.16,1.174-7.711,14,.16Zm-13.52-.595,13.175.149,1.041-6.833-13.175-.149Z" transform="translate(-391.089 312.671)" fill="#00888e"/>
                  <path id="Trazado_25926" data-name="Trazado 25926" d="M561.11-119.4l-4.328-.05.7-4.616,4.326.05Z" transform="translate(-396.824 314.785)" fill="#f1c555"/>
                  <path id="Trazado_25927" data-name="Trazado 25927" d="M558.866-104.657l-4.326-.05.7-4.616,4.327.05Z" transform="translate(-395.693 307.349)" fill="#00888e"/>
                  <path id="Trazado_25928" data-name="Trazado 25928" d="M572.495-104.5l-4.328-.05.7-4.616,4.327.05Z" transform="translate(-402.567 307.27)" fill="#00888e"/>
                  <path id="Trazado_25929" data-name="Trazado 25929" d="M545.236-104.813l-4.327-.05.7-4.616,4.328.05Z" transform="translate(-388.817 307.428)" fill="#00888e"/>
                  <path id="Trazado_25930" data-name="Trazado 25930" d="M554.709-79.261" transform="translate(-395.778 292.185)" fill="#231f20"/>
                  <path id="Trazado_25931" data-name="Trazado 25931" d="M553.635-79.261l-1.056,6.938Z" transform="translate(-394.704 292.185)" fill="#231f20"/>
                  <path id="Trazado_25932" data-name="Trazado 25932" d="M554.611-91.174a5.4,5.4,0,0,0-4.288-2.081l-1.057,6.938-5.346,4.852a5.408,5.408,0,0,0,4.291,2.085,7.261,7.261,0,0,0,4.906-1.979,8.361,8.361,0,0,0,2.653-4.883,6.389,6.389,0,0,0-1.159-4.927" transform="translate(-390.336 299.244)" fill="#00888e"/>
                  <path id="Trazado_25933" data-name="Trazado 25933" d="M554.709-86.323l1.057-6.938Z" transform="translate(-395.778 299.247)" fill="#231f20"/>
                  <path id="Trazado_25934" data-name="Trazado 25934" d="M544.133-91.283A8.356,8.356,0,0,0,541.48-86.4a6.389,6.389,0,0,0,1.16,4.927l5.346-4.852,1.057-6.938a7.262,7.262,0,0,0-4.906,1.977" transform="translate(-389.055 299.247)" fill="#f1c555"/>
                  <path id="Trazado_25935" data-name="Trazado 25935" d="M508.11-142.042c-1.2-.831-1.593.518-1.643,2.019a12.111,12.111,0,0,0,1.051,3.568,22.02,22.02,0,0,0,2.973-1.144c-.859-2.032-1.819-4.05-2.381-4.441" transform="translate(-371.443 323.982)" fill="#e38d32"/>
                  <path id="Trazado_25936" data-name="Trazado 25936" d="M516.127-133.292l-2.761,4.807s-.837-2.294-1.8-4.576a22.007,22.007,0,0,1-2.973,1.143c.709,1.751,1.576,3.56,1.928,4.234a3.977,3.977,0,0,0,2.379,2.2c3.139.066,4.1-7.459,4.1-7.459Z" transform="translate(-372.514 319.44)" fill="#f8c4b4"/>
                  <path id="Trazado_25937" data-name="Trazado 25937" d="M494.625-143.973s-4.642.2-5.019,2.049.227,13.677,2.3,19.529l7.929-1.6s-.821-9.1-.082-9.819c0,0-.373-.2,1.007-.922s2.044-1.8,1.635-3.072a6.56,6.56,0,0,0-2.17-2.706c-.659-.6-.125-1.888-.768-2.437s-4.837-1.018-4.837-1.018" transform="translate(-362.884 324.828)" fill="#e38d32"/>
                  <path id="Trazado_25938" data-name="Trazado 25938" d="M509.911-26.3c-.257-.248-.039-1.431-.039-1.431l-1.254.262s-.1.4-.2.91a3.891,3.891,0,0,0,1.5.259" transform="translate(-372.425 266.192)" fill="#f8c4b4"/>
                  <path id="Trazado_25939" data-name="Trazado 25939" d="M512.033-24.37a18.376,18.376,0,0,1-2.391-.725.055.055,0,0,1-.016-.013,3.884,3.884,0,0,1-1.5-.259c-.1.469-.218,1.02-.281,1.4.479.007,2.945.056,4.711.032a1.042,1.042,0,0,0-.525-.433" transform="translate(-372.14 264.999)" fill="#171614"/>
                  <path id="Trazado_25940" data-name="Trazado 25940" d="M507.806-22.548a1.242,1.242,0,0,0-.035.45,36.866,36.866,0,0,0,4.947-.023,1.972,1.972,0,0,0-.2-.4c-1.766.024-4.232-.024-4.711-.032" transform="translate(-372.097 263.578)" fill="#2b388f"/>
                  <path id="Trazado_25941" data-name="Trazado 25941" d="M499.975-95.835s1.482,11.683,1.887,14.966c.373,3.015,2.149,20.006,2.149,20.006l2.048-.145s.724-12.577.849-20.127c.124-7.533-.665-15.737-.665-15.737Z" transform="translate(-368.168 301.069)" fill="#2b388f"/>
                  <path id="Trazado_25942" data-name="Trazado 25942" d="M492.255-26.436c-.257-.248-.038-1.431-.038-1.431l-1.254.262s-.1.4-.2.91a3.909,3.909,0,0,0,1.5.259" transform="translate(-363.519 266.26)" fill="#f8c4b4"/>
                  <path id="Trazado_25943" data-name="Trazado 25943" d="M494.378-24.505a18.5,18.5,0,0,1-2.391-.726c-.006,0-.01-.006-.017-.012a3.9,3.9,0,0,1-1.5-.259c-.1.469-.218,1.02-.281,1.4.479.009,2.945.056,4.711.032a1.039,1.039,0,0,0-.525-.433" transform="translate(-363.233 265.067)" fill="#171614"/>
                  <path id="Trazado_25944" data-name="Trazado 25944" d="M490.149-22.683a1.23,1.23,0,0,0-.034.45,36.857,36.857,0,0,0,4.946-.023,1.977,1.977,0,0,0-.2-.4c-1.766.024-4.232-.022-4.711-.032" transform="translate(-363.191 263.646)" fill="#2b388f"/>
                  <path id="Trazado_25945" data-name="Trazado 25945" d="M485.811-95.715s1.727,12.791,2.128,16.086c.39,3.213.2,19.147.2,19.147l2-.022s2.333-12.618,3.048-20.116a68.2,68.2,0,0,0-.3-14.608Z" transform="translate(-361.023 300.485)" fill="#2b388f"/>
                  <path id="Trazado_25946" data-name="Trazado 25946" d="M488.733-111.39s-4.871,6.287-2.037,10.357c1.84,2.643,8.713,2.18,11.243.929,2.421-1.194.706-9.457-.231-11.327Z" transform="translate(-361.023 308.413)" fill="#2b388f"/>
                  <path id="Trazado_25947" data-name="Trazado 25947" d="M499.605-141.212a.278.278,0,0,0-.361.158.279.279,0,0,0,.158.361l.314.123.205-.519Z" transform="translate(-367.79 323.445)" fill="#c9dce7"/>
                  <rect id="Rectángulo_3902" data-name="Rectángulo 3902" width="0.558" height="3.843" transform="translate(131.926 182.876) rotate(-68.441)" fill="#2b388f"/>
                  <path id="Trazado_25948" data-name="Trazado 25948" d="M508.689-137.319l-.064.162.275.015Z" transform="translate(-372.532 321.472)" fill="#211319"/>
                  <path id="Trazado_25949" data-name="Trazado 25949" d="M507.619-138.1l-.2.518.6.029.064-.162Z" transform="translate(-371.921 321.864)" fill="#b0d4e5"/>
                  <path id="Trazado_25950" data-name="Trazado 25950" d="M500.412-140.945l-.205.519-.183-.071.206-.52Z" transform="translate(-368.193 323.337)" fill="#3869ac"/>
                  <path id="Trazado_25951" data-name="Trazado 25951" d="M498.442-135.94a16.129,16.129,0,0,1,1.734-2.905,8.372,8.372,0,0,1,2.639-.034c.219.129.19.311-.167.4s-1.041.277-1.041.277a4.622,4.622,0,0,1-.091,1.357,6.572,6.572,0,0,1-1.437.858,1.545,1.545,0,0,0-.545.635Z" transform="translate(-367.395 322.303)" fill="#f8c4b4"/>
                  <path id="Trazado_25952" data-name="Trazado 25952" d="M490.524-134.64s-5.1,6.5-5.267,6.207a12.411,12.411,0,0,1,.817-2.645,9.922,9.922,0,0,1-3.741-1.008c-.545,2.318-.707,4.98-.1,6.348.785,1.784,2.484,2.208,4.311.4,1.132-1.12,5.12-8.437,5.12-8.437Z" transform="translate(-359.023 320.12)" fill="#f8c4b4"/>
                  <path id="Trazado_25953" data-name="Trazado 25953" d="M487.8-138.075a.091.091,0,0,1,.007-.028c.6-2.072.241-2.811-.042-3.423-.1-.223-.347-.563-.545-.572a7.53,7.53,0,0,0-3.3,3.2,12.542,12.542,0,0,0-1.085,3.051,9.931,9.931,0,0,0,3.741,1.008c.5-1.359,1.069-2.812,1.229-3.234" transform="translate(-359.522 323.883)" fill="#e38d32"/>
                  <path id="Trazado_25954" data-name="Trazado 25954" d="M508.1-143.749l-.479-.608a.846.846,0,0,1,.6-.521c.443-.074.986,0,1,.431s-1.113.7-1.113.7" transform="translate(-372.027 325.297)" fill="#263564"/>
                  <rect id="Rectángulo_3903" data-name="Rectángulo 3903" width="7.73" height="10.91" transform="translate(135.596 180.941) rotate(-0.893)" fill="#3869ac"/>
                  <path id="Trazado_25955" data-name="Trazado 25955" d="M507.623-144.722s.486-.686.845-.282-.521,10.223-.521,10.223a32.587,32.587,0,0,0,7.324.7s1.125-10.006.131-10.889c0,0-7.45-1.639-7.78.245" transform="translate(-372.026 325.663)" fill="#c9dce7"/>
                  <path id="Trazado_25956" data-name="Trazado 25956" d="M523.157-135.493a7.721,7.721,0,0,0,.106-2.8c-.227-.676-2.052-.653-2.285-.284s-.034.935.534,1.338a3.578,3.578,0,0,0,.751.457s-.192.921.142,1.321Z" transform="translate(-378.715 322.234)" fill="#f8c4b4"/>
                  <path id="Trazado_25957" data-name="Trazado 25957" d="M497.158-151.647l.045,3.886c.1.824.761,1.031,1.469,1.113a1.244,1.244,0,0,0,1.52-.994l-.162-2.488Z" transform="translate(-366.747 328.699)" fill="#f8c4b4"/>
                  <path id="Trazado_25958" data-name="Trazado 25958" d="M494.863-162.51a2,2,0,0,1-1.7-.761,1.828,1.828,0,0,1,.407-2.681c.914-.458,2.27-.36,2.683.576a4.042,4.042,0,0,1,.243,2Z" transform="translate(-364.531 336.049)" fill="#171614"/>
                  <path id="Trazado_25959" data-name="Trazado 25959" d="M498.568-161.129s.1-.382-.519-.291-1.717.774-1.338,1.563c0,0,.114.439.614.095s1.454-1.041,1.245-1.367" transform="translate(-366.482 333.637)" fill="#e38d32"/>
                  <path id="Trazado_25960" data-name="Trazado 25960" d="M501.048-156.115a6.158,6.158,0,0,0,.185-2.025c-.108-.991-.807-3.142-2.767-3.114a2.415,2.415,0,0,0-2.012,1.279c-.5,1.208-.337,3.355.433,4.092s3.8.608,4.163-.231" transform="translate(-366.247 333.546)" fill="#171614"/>
                  <path id="Trazado_25961" data-name="Trazado 25961" d="M499.191-160.408l.537,1.043a3.082,3.082,0,0,1,1.685,2.146,4.439,4.439,0,0,1-.579,2.412,2.7,2.7,0,0,1-1.552,1.006,3.262,3.262,0,0,1-2.144-1.1,5.874,5.874,0,0,1-.679-1.66s1.379-2.407,3.047-2.844Z" transform="translate(-366.395 333.119)" fill="#f8c4b4"/>
                  <path id="Trazado_25962" data-name="Trazado 25962" d="M496.178-153.325s-.861-.194-.953.393.662,1.132,1.324.995Z" transform="translate(-365.768 329.562)" fill="#f8c4b4"/>
                  <path id="Trazado_25963" data-name="Trazado 25963" d="M729.6-296.948l0-3.618h-2.5a7.8,7.8,0,0,0-1.02-2.392l1.788-1.784-2.554-2.557-1.83,1.827a7.779,7.779,0,0,0-2.346-.934v-2.624l-3.615,0v2.686a7.807,7.807,0,0,0-2.255.961l-1.92-1.927-2.555,2.562,1.933,1.938a7.849,7.849,0,0,0-.929,2.237l-2.737,0,0,3.615h2.709a7.57,7.57,0,0,0,.9,2.3l-1.883,1.881,2.552,2.558,1.858-1.856a7.839,7.839,0,0,0,2.32,1v2.582l3.615,0v-2.52a7.853,7.853,0,0,0,2.411-.973l1.765,1.766,2.557-2.555-1.745-1.748a7.848,7.848,0,0,0,1.008-2.428Zm-10.145,1.014a2.777,2.777,0,0,1-2.777-2.779,2.777,2.777,0,0,1,2.779-2.777,2.778,2.778,0,0,1,2.777,2.779h0a2.775,2.775,0,0,1-2.775,2.775h0" transform="translate(-473.64 408.091)" fill="#6c9fd1"/>
                  <path id="Trazado_25964" data-name="Trazado 25964" d="M751.6-259.36V-261.7h-2.052a4.794,4.794,0,0,0-.541-1.233l1.474-1.472-1.654-1.653-1.487,1.483a4.861,4.861,0,0,0-1.22-.519v-2.085l-2.341,0v2.032a4.823,4.823,0,0,0-1.3.491l-1.4-1.41-1.655,1.656,1.338,1.338a4.831,4.831,0,0,0-.624,1.365H738.3v2.342h1.753a4.878,4.878,0,0,0,.584,1.487l-1.219,1.218,1.654,1.655,1.207-1.2a4.872,4.872,0,0,0,1.5.614v1.712l2.34,0v-1.768a4.917,4.917,0,0,0,1.418-.638l1.286,1.288,1.655-1.655-1.35-1.354a4.84,4.84,0,0,0,.5-1.351Zm-6.752,2.618a3.606,3.606,0,0,1-3.6-3.607,3.605,3.605,0,0,1,3.607-3.6,3.606,3.606,0,0,1,3.6,3.607h0a3.605,3.605,0,0,1-3.606,3.6h0" transform="translate(-488.39 386.982)" fill="#6c9fd1"/>
                  <path id="Trazado_25965" data-name="Trazado 25965" d="M712.136-244.624l0-3.615h-2.5a7.845,7.845,0,0,0-1.019-2.392l1.788-1.784-2.553-2.556-1.831,1.826a7.821,7.821,0,0,0-2.346-.933V-256.7l-3.618,0v2.686a7.85,7.85,0,0,0-2.254.963l-1.92-1.927-2.555,2.56,1.933,1.938a7.768,7.768,0,0,0-.931,2.238l-2.736,0,0,3.613H694.3a7.539,7.539,0,0,0,.9,2.3l-1.883,1.879,2.551,2.56,1.859-1.856a7.854,7.854,0,0,0,2.319,1v2.581l3.615,0v-2.521a7.837,7.837,0,0,0,2.413-.972l1.763,1.765,2.557-2.554-1.746-1.748a7.779,7.779,0,0,0,1.008-2.428Zm-10.147,1.016a2.778,2.778,0,0,1-2.778-2.779,2.778,2.778,0,0,1,2.779-2.778,2.779,2.779,0,0,1,2.778,2.779h0A2.776,2.776,0,0,1,702-243.608h-.006" transform="translate(-464.83 381.696)" fill="#6c9fd1"/>
                  <path id="Trazado_25966" data-name="Trazado 25966" d="M708.835-243.281a3.667,3.667,0,0,0-3.667,3.667,3.667,3.667,0,0,0,3.667,3.667,3.667,3.667,0,0,0,3.667-3.667h0a3.667,3.667,0,0,0-3.667-3.667m0,6.446a2.778,2.778,0,0,1-2.778-2.779,2.778,2.778,0,0,1,2.779-2.778,2.779,2.779,0,0,1,2.778,2.779h0a2.776,2.776,0,0,1-2.773,2.778h-.006" transform="translate(-471.676 374.923)" fill="#3869ac"/>
                  <path id="Trazado_25967" data-name="Trazado 25967" d="M706.085-235.993a6.37,6.37,0,0,1-6.369-6.371,6.37,6.37,0,0,1,6.371-6.369,6.37,6.37,0,0,1,6.369,6.369,6.378,6.378,0,0,1-6.371,6.37m0-12.146a5.776,5.776,0,0,0-5.775,5.777,5.776,5.776,0,0,0,5.777,5.775,5.776,5.776,0,0,0,5.775-5.777,5.782,5.782,0,0,0-5.777-5.776" transform="translate(-468.925 377.673)" fill="#3869ac"/>
                  <path id="Trazado_25968" data-name="Trazado 25968" d="M718.636-108.315l-50.631-15.744-22.38,6.8c-.108-.035-.2-.074-.316-.109-4.6-1.429-12.718-1.255-18.134.391s-6.08,4.14-1.482,5.571c.113.034.237.064.355.1l-18.46,5.608,22.984,7.148c5.419-1.645,13.537-1.823,18.138-.392s3.937,3.924-1.482,5.571l22.984,7.147,46.294-14.066c7.8-2.37,8.754-5.96,2.131-8.022" transform="translate(-422.453 314.783)" fill="#2b388f"/>
                  <path id="Trazado_25969" data-name="Trazado 25969" d="M607.588-119.91v16.3l22.984,7.148-.027-17.022Z" transform="translate(-422.453 312.69)" fill="#3869ac"/>
                  <path id="Trazado_25970" data-name="Trazado 25970" d="M607.664-87.06l-.075.023.314.1c-.079-.041-.159-.08-.238-.122" transform="translate(-422.453 296.119)" fill="#589eab"/>
                  <path id="Trazado_25971" data-name="Trazado 25971" d="M784.677-102.174l.008,0V-118.4l-1.355.077L730.4-101.771l-.6,10.419,1.574-.311v8.138l.484.149,46.294-14.066c4.449-1.353,6.667-3.1,6.524-4.735" transform="translate(-484.101 311.928)" fill="#3869ac"/>
                  <path id="Trazado_25972" data-name="Trazado 25972" d="M687.575-95.038v16.3l22.984,7.147v-16.3Z" transform="translate(-462.801 300.144)" fill="#3869ac"/>
                  <path id="Trazado_25973" data-name="Trazado 25973" d="M718.636-141.211l-50.631-15.744-22.38,6.8c-.108-.036-.2-.073-.316-.111-4.6-1.428-12.718-1.254-18.134.392s-6.08,4.138-1.482,5.569c.113.035.237.064.355.1l-18.46,5.609,22.984,7.147c5.419-1.645,13.537-1.821,18.138-.391s3.937,3.924-1.482,5.571l22.984,7.147,46.294-14.065c7.8-2.371,8.754-5.962,2.131-8.021" transform="translate(-422.453 331.377)" fill="#6c9fd1"/>
                  <path id="Trazado_25974" data-name="Trazado 25974" d="M749.156-172.632l2.256,28.734h.612l-1.234-28.864Z" transform="translate(-493.865 339.351)" fill="#171614"/>
                  <path id="Trazado_25975" data-name="Trazado 25975" d="M687.6-172.632,685.345-143.9h-.611l1.233-28.864Z" transform="translate(-461.368 339.351)" fill="#263564"/>
                  <path id="Trazado_25976" data-name="Trazado 25976" d="M738.277-172.632,736.021-143.9h-.611l1.233-28.864Z" transform="translate(-486.931 339.351)" fill="#171614"/>
                  <path id="Trazado_25977" data-name="Trazado 25977" d="M698.48-172.632l2.255,28.734h.612l-1.234-28.864Z" transform="translate(-468.302 339.351)" fill="#263564"/>
                  <rect id="Rectángulo_3904" data-name="Rectángulo 3904" width="33.595" height="1.433" transform="translate(223.758 166.054)" fill="#6c9fd1"/>
                  <rect id="Rectángulo_3905" data-name="Rectángulo 3905" width="26.048" height="1.433" transform="translate(232.641 166.054)" fill="#2b388f"/>
                  <path id="Trazado_25978" data-name="Trazado 25978" d="M699.1-198.848h-16.59l4.751,11.73h16.568Z" transform="translate(-460.248 352.509)" fill="#b0d4e5"/>
                  <path id="Trazado_25979" data-name="Trazado 25979" d="M685.012-197.568l4.159,10.316h14.644l-4.158-10.316Z" transform="translate(-461.508 351.864)" fill="#171614"/>
                  <rect id="Rectángulo_3906" data-name="Rectángulo 3906" width="23.553" height="0.881" transform="translate(226.979 165.295)" fill="#263564"/>
                  <rect id="Rectángulo_3907" data-name="Rectángulo 3907" width="9.798" height="0.881" transform="translate(226.979 165.295)" fill="#6c9fd1"/>
                  <rect id="Rectángulo_3908" data-name="Rectángulo 3908" width="1.311" height="0.23" transform="translate(228.165 165.642)" fill="#3869ac"/>
                  <rect id="Rectángulo_3909" data-name="Rectángulo 3909" width="1.311" height="0.23" transform="translate(230.079 165.642)" fill="#3869ac"/>
                  <path id="Trazado_25980" data-name="Trazado 25980" d="M702.129-174.616a.171.171,0,0,1-.172.17.171.171,0,0,1-.17-.171.17.17,0,0,1,.171-.17.171.171,0,0,1,.171.171h0" transform="translate(-469.97 340.372)" fill="#3869ac"/>
                  <rect id="Rectángulo_3910" data-name="Rectángulo 3910" width="2.35" height="0.27" transform="translate(243.184 165.295)" fill="#1e8aa1"/>
                  <path id="Trazado_25981" data-name="Trazado 25981" d="M750.855-166.113s-7.9-4.4-10.044-3.865-3.01,4.159-2.187,4.715,12.748,5.2,12.748,5.2Z" transform="translate(-488.398 337.969)" fill="#3869ac"/>
                  <path id="Trazado_25982" data-name="Trazado 25982" d="M740-205.831l2.6,3.525,4.47-1.583-3.918-4.176Z" transform="translate(-489.246 357.158)" fill="#f8c4b4"/>
                  <path id="Trazado_25983" data-name="Trazado 25983" d="M737.111-210.087s-1.005.51-1.446.107a9.592,9.592,0,0,1-.966-2.676s-.409-.176-.362-.4.169-.769.169-.769-.078-2.852,1.8-3.239a2.683,2.683,0,0,1,3.122,1.437,20.359,20.359,0,0,1,1.369,3.775.95.95,0,0,1-.666,1.024c-.789.286-3.017.743-3.017.743" transform="translate(-486.388 361.744)" fill="#f8c4b4"/>
                  <path id="Trazado_25984" data-name="Trazado 25984" d="M740.285-212.765a5.089,5.089,0,0,1-2.075.608c-1.214.086-1.994-.516-2.081-1.3,0,0,.7-.347.829-.743s-.07-1.227-.457-1.288a.8.8,0,0,0-.8.794c0,.017,0,.035,0,.053l.008.5-.674.038a13.369,13.369,0,0,1,.052-1.406c.064-.332.064-.789-.178-.869s-.315.23-.7.223a.587.587,0,0,1-.737-.38l0-.012c-.181-.562.446-1.073.985-1.209s1.578-1.069,3.238-.635,2.648,4.3,2.729,4.644c.156.652-.036.885-.142.982" transform="translate(-485.938 362.426)" fill="#171614"/>
                  <path id="Trazado_25985" data-name="Trazado 25985" d="M735.2-215.486a2.15,2.15,0,0,1,1.543-1.586,2.683,2.683,0,0,1,3.122,1.437,19.793,19.793,0,0,1,1.308,3.544,4.986,4.986,0,0,1-2.073.608c-1.214.087-1.994-.516-2.081-1.3,0,0,.7-.347.829-.743s-.071-1.227-.457-1.288a.8.8,0,0,0-.8.794c0,.017,0,.035,0,.053l.008.5-.674.038a13.353,13.353,0,0,1,.052-1.406c.064-.332.064-.789-.178-.869-.223-.071-.3.175-.6.216" transform="translate(-486.825 361.749)" fill="#171614"/>
                  <path id="Trazado_25986" data-name="Trazado 25986" d="M727.16-120.952l-2.172-.351-.409,1.668a10.558,10.558,0,0,0,1.9.389Z" transform="translate(-481.468 313.393)" fill="#f8c4b4"/>
                  <path id="Trazado_25987" data-name="Trazado 25987" d="M719.627-114.929c1.239.022,3.643-.1,3.643-.1l.043-.3c-1.334.136-4.021.077-4.739.057-.007.01-.162.317,1.053.338" transform="translate(-478.433 310.377)" fill="#b0d4e5"/>
                  <path id="Trazado_25988" data-name="Trazado 25988" d="M722.729-116.945c.129-.019.174-.381.19-.625-.126.038-.265.084-.413.129.03.2.086.518.224.5" transform="translate(-480.421 311.51)" fill="#b0d4e5"/>
                  <path id="Trazado_25989" data-name="Trazado 25989" d="M721.557-117.94v0s-.043.01-.118.032c.1.226.2.573-.035.606s-.351-.264-.409-.475a.337.337,0,0,0-.049.015c-.015.244-.06.606-.19.625s-.193-.291-.223-.5c-.874.288-1.982.719-1.943,1.041h0c.718.02,3.4.078,4.739-.057l.128-.908a10.557,10.557,0,0,1-1.9-.389" transform="translate(-478.445 311.697)" fill="#171614"/>
                  <path id="Trazado_25990" data-name="Trazado 25990" d="M723.849-117.259c.237-.033.131-.38.035-.606-.1.027-.256.073-.446.131.057.212.178.507.409.475" transform="translate(-480.892 311.658)" fill="#b0d4e5"/>
                  <path id="Trazado_25991" data-name="Trazado 25991" d="M742.917-160.334s-13.628.019-14.371,1.344-4.046,19.3-4.046,19.3l2.371.633s4.7-11.461,5.688-15.294c0,0,13.483,1.579,14.84,1.472s.1-.149.1-.149Z" transform="translate(-481.427 333.081)" fill="#2b388f"/>
                  <path id="Trazado_25992" data-name="Trazado 25992" d="M719.276-143.475l-1.649-1.052-1.335,1.132a10.8,10.8,0,0,0,1.555,1.151Z" transform="translate(-477.287 325.108)" fill="#f8c4b4"/>
                  <path id="Trazado_25993" data-name="Trazado 25993" d="M710.479-141.549c1.112.542,3.343,1.448,3.343,1.448l.166-.251c-1.267-.441-3.679-1.631-4.321-1.95-.01.007-.279.219.812.753" transform="translate(-473.927 323.985)" fill="#b0d4e5"/>
                  <path id="Trazado_25994" data-name="Trazado 25994" d="M714.06-142.006c.126.033.319-.272.436-.485-.13-.018-.277-.038-.428-.055-.06.2-.142.5-.007.541" transform="translate(-476.125 324.109)" fill="#b0d4e5"/>
                  <path id="Trazado_25995" data-name="Trazado 25995" d="M712.972-142.494h0l-.122-.022c-.006.248-.056.608-.286.538s-.207-.389-.17-.606l-.054-.006c-.117.214-.31.519-.436.485s-.052-.347.007-.541c-.913-.11-2.1-.187-2.2.122h0c.644.319,3.054,1.509,4.321,1.95l.5-.769a10.725,10.725,0,0,1-1.555-1.151" transform="translate(-473.967 324.207)" fill="#171614"/>
                  <path id="Trazado_25996" data-name="Trazado 25996" d="M715.269-141.817c.23.07.28-.288.286-.538-.1-.013-.261-.039-.456-.068-.037.216-.052.535.17.606" transform="translate(-476.674 324.046)" fill="#b0d4e5"/>
                  <path id="Trazado_25997" data-name="Trazado 25997" d="M731.7-165.373s-2.5,4.542-13.424,10.152l-1.6-1.3s11.723-13.78,13.342-13.409,2.651,2.448,1.685,4.559" transform="translate(-477.481 337.927)" fill="#3869ac"/>
                  <path id="Trazado_25998" data-name="Trazado 25998" d="M769.222-157.5s-1.571,3.639-6.526,2.955-5.6-3.535-5.826-5.56a10.389,10.389,0,0,0-.781-2.586c7.823.948,12.092.053,14.135-.7a14.684,14.684,0,0,1-1,5.894" transform="translate(-497.362 334.623)" fill="#2b388f"/>
                  <path id="Trazado_25999" data-name="Trazado 25999" d="M739.613-201.037a14.583,14.583,0,0,1,3.766-2.911,6.729,6.729,0,0,1,6.559-.143c3.188,1.47,11.486,10.407,11.757,19.788-2.042.755-6.311,1.65-14.135.7a29.05,29.05,0,0,0-3.568-6.195c-1.953-2.489-6.155-9.469-4.38-11.242" transform="translate(-488.835 355.536)" fill="#f1c555"/>
                  <path id="Trazado_26000" data-name="Trazado 26000" d="M702.636-179.826a.184.184,0,0,0,.1.242.185.185,0,0,0,.243-.1l1.582-3.695a.185.185,0,0,0-.109-.237.185.185,0,0,0-.23.092Z" transform="translate(-470.391 344.83)" fill="#4c87ae"/>
                  <path id="Trazado_26001" data-name="Trazado 26001" d="M732.621-193.489c1.714-2.428,3.717-5.833,5.725-6.123,0,0,2.98.3,2.874,2.685-.063,1.411-2.451,4.386-5.031,6.649a9.321,9.321,0,0,1-3.568-3.212" transform="translate(-485.524 352.895)" fill="#f1c555"/>
                  <path id="Trazado_26002" data-name="Trazado 26002" d="M718.446-184.875c.677-.2,1.466-1.167,2.325-2.383a9.326,9.326,0,0,0,3.568,3.212c-1.781,1.562-3.653,2.784-4.917,2.919a71.678,71.678,0,0,1-9.8-.3l-.489-1.5s7.288-1.36,9.317-1.949" transform="translate(-473.673 346.663)" fill="#f8c4b4"/>
                  <path id="Trazado_26003" data-name="Trazado 26003" d="M706.914-179.441s-.595.2-.824-.129a3.373,3.373,0,0,0-1.43-1.129c-.49-.108-1.769-.463-1.875.347s.042,1.624.8,1.891a17.648,17.648,0,0,0,3.265.3Z" transform="translate(-470.459 343.44)" fill="#f8c4b4"/>
                  <path id="Trazado_26004" data-name="Trazado 26004" d="M752.575-149.916l-2.255,17.543h-.61l1.164-17.1Z" transform="translate(-494.144 327.826)" fill="#00888e"/>
                  <path id="Trazado_26005" data-name="Trazado 26005" d="M774.726-150l2.255,17.543h.612l-1.234-17.625Z" transform="translate(-506.764 327.909)" fill="#00888e"/>
                  <path id="Trazado_26006" data-name="Trazado 26006" d="M763.575-178.56s-5.141-.032-6.355,2.4-1.437,9.164-2.044,9.931-6.226,2.039-6.482,2.81,2.874,1.851,8.334,1.915,12.262-1.5,13.124-5.336.415-12.355-6.577-11.716" transform="translate(-493.625 342.292)" fill="#63c0c2"/>
                  <path id="Trazado_26007" data-name="Trazado 26007" d="M763.5-150l-2.255,17.543h-.612l1.234-17.625Z" transform="translate(-499.655 327.909)" fill="#63c0c2"/>
                  <path id="Trazado_26008" data-name="Trazado 26008" d="M784.422-151.94l2.255,18.5h.611l-1.233-18.587Z" transform="translate(-511.655 328.89)" fill="#63c0c2"/>
                  <path id="Trazado_26009" data-name="Trazado 26009" d="M381.507-130.768v6.667h-5.637l.418-6.668Z" transform="translate(-305.565 318.167)" fill="#2b388f"/>
                  <path id="Trazado_26010" data-name="Trazado 26010" d="M234.011-106.585,234-90.6l25.1,4.632,4.216-16.443Z" transform="translate(-234 305.968)" fill="#3869ac"/>
                  <path id="Trazado_26011" data-name="Trazado 26011" d="M328.1-86.859l20.825-6.329-22.317-6.938c-5.417,1.646-13.533,1.82-18.133.39s-3.939-3.921,1.479-5.569l-22.316-6.94L240.559-97.94c-7.8,2.37-8.757,5.961-2.131,8.02l49.3,15.33,20.827-6.329c4.678,1.248,12.349,1.027,17.547-.553s6-3.934,2-5.387" transform="translate(-234.011 308.824)" fill="#4e8c98"/>
                  <path id="Trazado_26012" data-name="Trazado 26012" d="M403.542-106.248l.04,16.086-61.2,18.6V-87.683Z" transform="translate(-288.671 305.798)" fill="#3869ac"/>
                  <path id="Trazado_26013" data-name="Trazado 26013" d="M308.549-81.932V-97.039c4.678,1.247,12.349,1.028,17.547-.554a11.352,11.352,0,0,0,3.5-1.607l-2.991-.93c-5.417,1.647-13.533,1.82-18.132.39s-3.939-3.921,1.478-5.568l-22.316-6.941L240.559-97.943c-7.8,2.37-8.757,5.961-2.131,8.02l49.3,15.331,19.024-5.78a3.336,3.336,0,0,0-.21-1.05c-.074-.127.711-.306,2.009-.508" transform="translate(-234.011 308.826)" fill="#3869ac"/>
                  <path id="Trazado_26014" data-name="Trazado 26014" d="M406.475-74.343l-.062-11.278-.953-.3a11.36,11.36,0,0,1-3.5,1.607c-5.2,1.581-12.868,1.8-17.547.553V-67.64c4.679,1.247,12.348,1.026,17.547-.553,2.99-.909,4.519-2.074,4.522-3.178h.01Z" transform="translate(-309.873 295.543)" fill="#3869ac"/>
                  <path id="Trazado_26015" data-name="Trazado 26015" d="M328.1-119.379l20.825-6.329-22.317-6.938c-5.417,1.646-13.533,1.82-18.133.391s-3.939-3.923,1.479-5.571l-22.316-6.938-47.078,14.3c-7.8,2.365-8.759,5.957-2.134,8.014l49.3,15.33,20.827-6.328c4.678,1.247,12.349,1.028,17.547-.553s6-3.934,2-5.386" transform="translate(-234.009 325.227)" fill="#6c9fd1"/>
                  <path id="Trazado_26016" data-name="Trazado 26016" d="M274.319-159.293c-1.479-15.48,10.98-33.758,11.5-34.532l.811.044c-.124.187-12.716,19.281-11.274,34.389Z" transform="translate(-254.277 349.976)" fill="#2b388f"/>
                  <path id="Trazado_26017" data-name="Trazado 26017" d="M277.2-152.892s7.267-6.255,18.767-.487c0,0-2.7,1.616-7.544.524,0,0-2.288,1.183-3.892.63s-1.239-.5-1.239-.5-1.25.926-6.091-.167" transform="translate(-255.792 330.806)" fill="#2b388f"/>
                  <path id="Trazado_26018" data-name="Trazado 26018" d="M286.723-177.254s4.716-4.668,12.934-1.243a7.484,7.484,0,0,1-5.185.73,4.243,4.243,0,0,1-2.656.618c-1.133-.3-.881-.283-.881-.283s-.818.7-4.212.178" transform="translate(-260.596 342.877)" fill="#2b388f"/>
                  <path id="Trazado_26019" data-name="Trazado 26019" d="M291.215-185.927s3.216-4.024,9.862-2.121a5.817,5.817,0,0,1-3.931,1.027,3.274,3.274,0,0,1-1.993.716c-.9-.135-.705-.14-.705-.14s-.566.614-3.231.517" transform="translate(-262.861 347.319)" fill="#2b388f"/>
                  <path id="Trazado_26020" data-name="Trazado 26020" d="M297.493-195.957s3.215-4.025,9.862-2.122a5.82,5.82,0,0,1-3.931,1.03,3.28,3.28,0,0,1-1.994.715c-.9-.134-.7-.142-.7-.142s-.567.613-3.232.519" transform="translate(-266.028 352.379)" fill="#2b388f"/>
                  <path id="Trazado_26021" data-name="Trazado 26021" d="M262.05-158.922s-4.677-8.371-17.458-6.9c0,0,1.982,2.449,6.906,3.087,0,0,1.743,1.893,3.44,1.924s1.338-.043,1.338-.043.855,1.3,5.775,1.936" transform="translate(-239.343 335.939)" fill="#2b388f"/>
                  <path id="Trazado_26022" data-name="Trazado 26022" d="M274.547-137.557s8.051-5.211,18.66,2.067c0,0-2.9,1.236-7.547-.506,0,0-2.428.86-3.941.094s-1.161-.665-1.161-.665-1.365.747-6.012-.991" transform="translate(-254.453 322.503)" fill="#2b388f"/>
                  <path id="Trazado_26023" data-name="Trazado 26023" d="M258.426-142.9s-5.433-7.9-18.026-5.252c0,0,2.2,2.252,7.162,2.432,0,0,1.911,1.724,3.6,1.593s1.327-.163,1.327-.163.973,1.212,5.931,1.388" transform="translate(-237.228 327.208)" fill="#2b388f"/>
                  <path id="Trazado_26024" data-name="Trazado 26024" d="M270.265-173.8s-2.985-7.668-14.02-7.934c0,0,1.4,2.316,5.5,3.438,0,0,1.258,1.818,2.7,2.043s1.14.124,1.14.124.574,1.2,4.681,2.329" transform="translate(-245.221 343.878)" fill="#2b388f"/>
                  <path id="Trazado_26025" data-name="Trazado 26025" d="M279.208-185.941s-1.262-6.873-10.421-8.858c0,0,.793,2.154,4.037,3.749,0,0,.759,1.714,1.923,2.134s.932.283.932.283.285,1.1,3.529,2.69" transform="translate(-251.548 350.467)" fill="#2b388f"/>
                  <path id="Trazado_26026" data-name="Trazado 26026" d="M289.518-194.313s.991-4.787-4.423-8.49a5.549,5.549,0,0,0,1.631,3.5,3.12,3.12,0,0,0,.683,1.889c.644.581.529.429.529.429s-.1.786,1.58,2.676" transform="translate(-259.774 354.505)" fill="#2b388f"/>
                  <path id="Trazado_26027" data-name="Trazado 26027" d="M293.788-200.864s.991-4.787-4.423-8.493a5.522,5.522,0,0,0,1.63,3.5,3.1,3.1,0,0,0,.684,1.887c.645.577.529.432.529.432s-.1.786,1.579,2.676" transform="translate(-261.928 357.811)" fill="#2b388f"/>
                  <path id="Trazado_26028" data-name="Trazado 26028" d="M281.884-166.675s6.1-5.523,16.1-.821c0,0-2.286,1.447-6.464.613,0,0-1.937,1.061-3.326.62s-1.075-.406-1.075-.406-1.052.824-5.231-.006" transform="translate(-258.155 337.651)" fill="#2b388f"/>
                  <path id="Trazado_26029" data-name="Trazado 26029" d="M266.759-154.256c1.338-11.689-7.83-25.688-8.208-26.281l-.614.02c.092.145,9.344,14.765,8.039,26.17Z" transform="translate(-246.075 343.273)" fill="#63c0c2"/>
                  <path id="Trazado_26030" data-name="Trazado 26030" d="M259.578-149.423s-5.408-4.834-14.187-.636c0,0,2.022,1.262,5.7.506a4.616,4.616,0,0,0,2.934.528c1.22-.4.946-.36.946-.36s.932.718,4.609-.038" transform="translate(-239.746 328.763)" fill="#63c0c2"/>
                  <path id="Trazado_26031" data-name="Trazado 26031" d="M257.231-167.954s-3.5-3.6-9.766-1.125a5.673,5.673,0,0,0,3.911.625,3.2,3.2,0,0,0,2,.505c.861-.216.67-.2.67-.2s.609.541,3.184.2" transform="translate(-240.792 337.931)" fill="#63c0c2"/>
                  <path id="Trazado_26032" data-name="Trazado 26032" d="M256.337-174.57s-2.379-3.091-7.429-1.741a4.394,4.394,0,0,0,2.959.831,2.486,2.486,0,0,0,1.5.571c.684-.088.536-.1.536-.1s.421.474,2.438.436" transform="translate(-241.52 341.313)" fill="#63c0c2"/>
                  <path id="Trazado_26033" data-name="Trazado 26033" d="M251.727-182.246s-2.375-3.089-7.429-1.744a4.4,4.4,0,0,0,2.959.834,2.48,2.48,0,0,0,1.5.57c.683-.089.536-.1.536-.1s.421.473,2.437.437" transform="translate(-239.195 345.186)" fill="#63c0c2"/>
                  <path id="Trazado_26034" data-name="Trazado 26034" d="M272.066-153.679s3.656-6.265,13.3-4.974c0,0-1.536,1.825-5.268,2.237a4.616,4.616,0,0,1-2.626,1.4c-1.281,0-1.01-.05-1.01-.05s-.666.97-4.4,1.382" transform="translate(-253.202 332.322)" fill="#63c0c2"/>
                  <path id="Trazado_26035" data-name="Trazado 26035" d="M261.43-137.759s-6.015-4.056-14.144,1.3c0,0,2.177.974,5.716-.275a4.627,4.627,0,0,0,2.979.125c1.156-.558.89-.486.89-.486s1.019.584,4.559-.665" transform="translate(-240.702 322.436)" fill="#63c0c2"/>
                  <path id="Trazado_26036" data-name="Trazado 26036" d="M274.161-141.533s4.222-5.9,13.707-3.717c0,0-1.7,1.673-5.451,1.738a4.621,4.621,0,0,1-2.749,1.156c-1.279-.121-1-.145-1-.145s-.752.9-4.505.969" transform="translate(-254.259 325.716)" fill="#63c0c2"/>
                  <path id="Trazado_26037" data-name="Trazado 26037" d="M268.7-165.008s2.365-5.755,10.716-5.8a7.026,7.026,0,0,1-4.212,2.527,3.983,3.983,0,0,1-2.069,1.506c-1.092.154-.865.076-.865.076s-.448.9-3.57,1.691" transform="translate(-251.504 338.365)" fill="#63c0c2"/>
                  <path id="Trazado_26038" data-name="Trazado 26038" d="M264.865-174.314s1.051-5.182,8.008-6.553a5.971,5.971,0,0,1-3.108,2.78s-.6,1.284-1.483,1.586-.711.2-.711.2-.231.823-2.707,1.985" transform="translate(-249.57 343.439)" fill="#63c0c2"/>
                  <path id="Trazado_26039" data-name="Trazado 26039" d="M261.764-180.791s-.683-3.637,3.465-6.36a4.163,4.163,0,0,1-1.283,2.62,2.363,2.363,0,0,1-.545,1.422c-.5.428-.407.318-.407.318s.068.595-1.232,2" transform="translate(-247.984 346.609)" fill="#63c0c2"/>
                  <path id="Trazado_26040" data-name="Trazado 26040" d="M258.627-185.807s-.682-3.633,3.466-6.357a4.18,4.18,0,0,1-1.284,2.622,2.365,2.365,0,0,1-.543,1.419c-.5.429-.407.316-.407.316s.068.595-1.232,2" transform="translate(-246.402 349.138)" fill="#63c0c2"/>
                  <path id="Trazado_26041" data-name="Trazado 26041" d="M258.3-159.9s-4.536-4.262-12.162-.847a7.027,7.027,0,0,0,4.88.554,3.974,3.974,0,0,0,2.508.519c1.057-.313.821-.292.821-.292s.783.635,3.955.065" transform="translate(-240.122 333.96)" fill="#63c0c2"/>
                  <path id="Trazado_26042" data-name="Trazado 26042" d="M260.707-129.28s.839,10.322,3.353,13.939h12.177s2.428-7.9,2.428-14.163Z" transform="translate(-247.472 317.53)" fill="#3869ac"/>
                  <rect id="Rectángulo_3911" data-name="Rectángulo 3911" width="18.661" height="1.987" transform="translate(12.927 186.747)" fill="#6c9fd1"/>
                  <path id="Trazado_26043" data-name="Trazado 26043" d="M346.06-239.669a4.019,4.019,0,0,0,.463-1.2,1.867,1.867,0,0,0-1.953-1.635,4.318,4.318,0,0,0-2.58.534,3.332,3.332,0,0,0-1.759,3.271,3.9,3.9,0,0,0,2.164,2.807c.452.092,3.7-2.392,3.7-2.451s-.034-1.327-.034-1.327" transform="translate(-287.571 374.532)" fill="#171614"/>
                  <path id="Trazado_26044" data-name="Trazado 26044" d="M345.186-235.48a1.334,1.334,0,0,0-.493-.677.31.31,0,0,0-.426.05h0s-.393.371-.162.76a1.554,1.554,0,0,0,.676.532v.006c-.11.479-1.347,1.292-1.347,1.292l-.823,3.9a12.451,12.451,0,0,0,3.336-.274s.691-2.742.738-2.9,1.218-.385,1.506-.68-.1-1.652-.087-1.81.262-.378.33-.5-.418-.5-.636-.607a2.3,2.3,0,0,1-.429-.855s-.48-.34-.722-.311-.376.251-.531.629-.466,1.35-.929,1.456" transform="translate(-288.788 372.04)" fill="#f8c4b4"/>
                  <path id="Trazado_26045" data-name="Trazado 26045" d="M371.159-226.1a2.945,2.945,0,0,0,1.154-.674,2.557,2.557,0,0,1,1.053-.64c.171-.083,1.09-.405,1-.644a1.437,1.437,0,0,0-1.036-.736,1.47,1.47,0,0,0-1.212.766,2.409,2.409,0,0,1-.789.8c-.227.122-.475.248-.475.248Z" transform="translate(-303.034 367.617)" fill="#f8c4b4"/>
                  <path id="Trazado_26046" data-name="Trazado 26046" d="M384.992-235.524l-.952.012s.034-1.239,0-1.354a1.466,1.466,0,0,1-.009-.834c.111-.438.288-2.563.828-2.428s1,1.784.8,2.352-.672.968-.7,1.245a7.432,7.432,0,0,0,.035,1.007" transform="translate(-309.654 373.336)" fill="#f8c4b4"/>
                  <path id="Trazado_26047" data-name="Trazado 26047" d="M403.361-296.385a13.788,13.788,0,0,0-3.865-5.141l-.807,1.67a12.058,12.058,0,0,1,1,17.023,12.058,12.058,0,0,1-17.023,1q-.227-.2-.443-.415l-2.8-.5a13.855,13.855,0,0,0,19.346,3.1,13.855,13.855,0,0,0,4.589-16.738" transform="translate(-307.359 404.304)" fill="#6c9fd1"/>
                  <path id="Trazado_26048" data-name="Trazado 26048" d="M399.422-300.9a13.854,13.854,0,0,0-18.223-7.2,13.854,13.854,0,0,0-7.2,18.223,13.855,13.855,0,0,0,18.223,7.2l0,0a13.851,13.851,0,0,0,7.195-18.219v0m-1.648.713a12.059,12.059,0,0,1-6.259,15.863,12.059,12.059,0,0,1-15.863-6.259,12.059,12.059,0,0,1,6.259-15.863h0a12.057,12.057,0,0,1,15.862,6.256v0" transform="translate(-304.043 408.2)" fill="#171614"/>
                  <g id="Grupo_30420" data-name="Grupo 30420" transform="translate(70.607 100.75)" opacity="0.8">
                    <g id="Grupo_30419" data-name="Grupo 30419">
                      <g id="Grupo_63540" data-name="Grupo 63540">
                        <g id="Grupo_63539" data-name="Grupo 63539" clip-path="url(#clip-path-3)">
                          <g id="Grupo_30418" data-name="Grupo 30418" transform="translate(0.002 -0.002)">
                            <path id="Trazado_26049" data-name="Trazado 26049" d="M378.453-297.942a12.057,12.057,0,0,1,15.371-6.456c-.157-.077-.316-.155-.478-.223a12.057,12.057,0,0,0-15.861,6.257,12.057,12.057,0,0,0,6.258,15.861c.165.068.328.134.491.2a12.052,12.052,0,0,1-5.781-15.635" transform="translate(-376.484 305.622)" fill="#6c9fd1"/>
                            <path id="Trazado_26050" data-name="Trazado 26050" d="M400.589-288.331a12.053,12.053,0,0,0-5.782-15.634,12.053,12.053,0,0,0-15.571,6.933,12.053,12.053,0,0,0,5.98,15.157,12.054,12.054,0,0,0,15.372-6.456" transform="translate(-377.468 305.191)" fill="#c9dce7"/>
                          </g>
                        </g>
                      </g>
                    </g>
                  </g>
                  <rect id="Rectángulo_3913" data-name="Rectángulo 3913" width="6.616" height="2.179" transform="translate(74.375 130.262) rotate(-66.538)" fill="#171614"/>
                  <path id="Trazado_26051" data-name="Trazado 26051" d="M372.247-221.252c-.07.163-.035.335.081.385l2.352,1.021c.116.05.266-.045.336-.2l.305-.714-2.769-1.2Z" transform="translate(-303.719 364.172)" fill="#171614"/>
                  <path id="Trazado_26052" data-name="Trazado 26052" d="M385.987-245.633c.071-.165.034-.338-.082-.387l-2.351-1.021c-.117-.05-.267.044-.336.206l-.234.537,2.772,1.2Z" transform="translate(-309.153 376.826)" fill="#3869ac"/>
                  <path id="Trazado_26053" data-name="Trazado 26053" d="M377.9-245.525l-5,11.674,2.769,1.2,5-11.673Z" transform="translate(-304.067 376.055)" fill="#171614"/>
                  <g id="Grupo_30423" data-name="Grupo 30423" transform="translate(81.194 102.877)" opacity="0.8">
                    <g id="Grupo_30422" data-name="Grupo 30422">
                      <g id="Grupo_63542" data-name="Grupo 63542">
                        <g id="Grupo_63541" data-name="Grupo 63541" clip-path="url(#clip-path-4)">
                          <g id="Grupo_30421" data-name="Grupo 30421" transform="translate(0.001 -0.004)">
                            <path id="Trazado_26054" data-name="Trazado 26054" d="M400.425-299.446a1.347,1.347,0,0,1-1.774.694,1.347,1.347,0,0,1-.694-1.774,1.347,1.347,0,0,1,1.774-.694,1.342,1.342,0,0,1,.7,1.765l0,.009" transform="translate(-397.844 301.334)" fill="#fff"/>
                          </g>
                        </g>
                      </g>
                    </g>
                  </g>
                  <path id="Trazado_26055" data-name="Trazado 26055" d="M385.49-237.472s-.251-1.345-.434-1.227a1.761,1.761,0,0,0-.149,1.324,4.974,4.974,0,0,0,.4.927,1.558,1.558,0,0,0,.185-1.024" transform="translate(-310.094 372.615)" fill="#f8c4b4"/>
                  <path id="Trazado_26056" data-name="Trazado 26056" d="M373.973-227.28a4.2,4.2,0,0,1,1.159.193c.245.152,0,.257-.682.354a1.927,1.927,0,0,0-1.054.6,1.19,1.19,0,0,1-.372.06Z" transform="translate(-304.129 366.852)" fill="#f8c4b4"/>
                  <path id="Trazado_26057" data-name="Trazado 26057" d="M352.188-226.034s-10.146,5.939-10.324,5.939-4.645-5.88-6.612-4.948c-4.135,1.959-3.251,5.276,2.449,7.369s6.857,1.28,8.638-.5,6.551-6.789,6.551-6.789Z" transform="translate(-283.779 366.223)" fill="#4ea9a9"/>
                  <path id="Trazado_26058" data-name="Trazado 26058" d="M354.779-227.683a63.432,63.432,0,0,1,7.89,5.3l3.434-10.924,1.6.116s-.582,14.4-3.152,15.561c-2.541,1.145-13.956-2.46-15.522-5.116s4.685-5.253,5.749-4.935" transform="translate(-291.9 369.894)" fill="#63c0c2"/>
                  <path id="Trazado_26059" data-name="Trazado 26059" d="M324.2-105.093a.976.976,0,0,0,.359-.144.352.352,0,0,1-.215-.213,11.782,11.782,0,0,1-.09-1.586l-1.429-.178s-.168,1.661-.17,1.866c0,.041-.006.129-.014.241a12.306,12.306,0,0,0,1.559.014" transform="translate(-278.712 306.286)" fill="#bad1e7"/>
                  <path id="Trazado_26060" data-name="Trazado 26060" d="M322.5-102.049c.009-.32.045-.762.065-1.041a12.4,12.4,0,0,0,1.559.014.976.976,0,0,0,.359-.144c.237.11.628.156.994.334a.8.8,0,0,1,.43.694c-.5.063-1.773.226-2.23.232a9.2,9.2,0,0,1-1.179-.086" transform="translate(-278.644 304.27)" fill="#171614"/>
                  <path id="Trazado_26061" data-name="Trazado 26061" d="M323.67-101.011c.456-.009,1.734-.168,2.23-.234a1.225,1.225,0,0,1,0,.245s-1.343.181-1.869.278a7,7,0,0,1-1.521-.012,1.564,1.564,0,0,1-.014-.363,8.846,8.846,0,0,0,1.178.087" transform="translate(-278.637 303.275)" fill="#3869ac"/>
                  <path id="Trazado_26062" data-name="Trazado 26062" d="M324.031-176.725s.356,13.8.892,17.276c0,0-2.553,13.228-2.745,19.079l2.439-.012s5.2-15.24,6.006-20.049,1.068-15.049,1.068-15.049Z" transform="translate(-278.48 341.35)" fill="#171614"/>
                  <path id="Trazado_26063" data-name="Trazado 26063" d="M359.7-109.317l.076,3.153h0c-.063.163-.151.342-.244.342-.124,0-1.206-.034-1.8-.053l-.3-3.172Z" transform="translate(-296.264 307.346)" fill="#bad1e7"/>
                  <path id="Trazado_26064" data-name="Trazado 26064" d="M363.01-100.709a.249.249,0,0,1,.025.218h-4.484l-.084-.322c1.25.045,3.836.092,4.543.1" transform="translate(-296.786 303.057)" fill="#3869ac"/>
                  <path id="Trazado_26065" data-name="Trazado 26065" d="M358.037-102.663c.592.019,1.673.053,1.8.053.093,0,.181-.179.244-.341,2.041.487,2.583.949,2.714,1.21-.708-.012-3.294-.06-4.543-.105Z" transform="translate(-296.569 304.136)" fill="#171614"/>
                  <path id="Trazado_26066" data-name="Trazado 26066" d="M339.932-175.45s3.407,9.884,6.012,15.7c0,0,2.115,16.1,2.672,18.39l2.538-.023s.8-17.1.267-19.9-4.047-17.76-4.047-17.76Z" transform="translate(-287.436 342.523)" fill="#171614"/>
                  <path id="Trazado_26067" data-name="Trazado 26067" d="M340.094-179.175c-.01.214-.021.412-.038.588-.186,1.9.3,4-2.937,4.5s-9.7.805-11.036-1.933a7.767,7.767,0,0,1-.574-3.277,68.533,68.533,0,0,0,14.584.123" transform="translate(-280.158 342.647)" fill="#171614"/>
                  <path id="Trazado_26068" data-name="Trazado 26068" d="M335.968-225.5c-2.3-.123-3.717-.578-6.12.657-2.661,1.368-5.2,9.934-5.391,12.1a56.454,56.454,0,0,0-.55,8.206h0c.057,1.111.3,2.672.3,2.672.721.476,4.505-.258,6.05-.266s3.271.3,5.638.3c3.379-.008,4.287-1.163,4.287-1.163.361-2.007.684-6.553,1.027-8.135.3-1.4,2.273-9.794,2.035-11.622s-7.282-2.749-7.282-2.749" transform="translate(-279.333 366.047)" fill="#63c0c2"/>
                </g>
              </g>
            </g>
          </g>
        </g>
      </g>
    </g>
    <rect id="Rectángulo_8863" data-name="Rectángulo 8863" width="390" height="283" transform="translate(180 948)" fill="none"/>
  </g>
</svg>
